<?xml version="1.0" encoding="UTF-8"?>
<!DOCTYPE svg PUBLIC "-//W3C//DTD SVG 1.1//EN" "http://www.w3.org/Graphics/SVG/1.1/DTD/svg11.dtd">
<!-- Creator: CorelDRAW X5 -->
<svg xmlns="http://www.w3.org/2000/svg" xml:space="preserve" width="210mm" height="80.852mm" style="shape-rendering:geometricPrecision; text-rendering:geometricPrecision; image-rendering:optimizeQuality; fill-rule:evenodd; clip-rule:evenodd"
viewBox="0 0 21000 8085"
 xmlns:xlink="http://www.w3.org/1999/xlink">
 <defs>
  <style type="text/css">
   <![CDATA[
    .fil1 {fill:#E62129}
    .fil0 {fill:#FEFEFE}
    .fil2 {fill:black}
   ]]>
  </style>
 </defs>
 <g id="Layer_x0020_1">
  <metadata id="CorelCorpID_0Corel-Layer"/>
  <path class="fil0" d="M8660 4585c131,147 211,341 211,553 0,458 -374,832 -832,832 -311,0 -582,-172 -725,-425 -144,251 -414,421 -723,421 -458,0 -832,-374 -832,-832 0,-210 79,-402 208,-549 -374,-81 -656,-415 -656,-813 0,-458 374,-832 832,-832 122,0 238,26 342,74 -3,-27 -4,-54 -4,-82 0,-458 374,-832 832,-832 458,0 832,374 832,832 0,28 -1,55 -4,82 104,-47 219,-73 340,-73 458,0 832,374 832,832 0,397 -280,730 -653,812z"/>
  <path class="fil1" d="M8808 4633c37,56 68,115 92,178 39,102 60,212 60,327 0,254 -103,484 -270,651 -167,167 -397,270 -651,270 -168,0 -327,-46 -464,-126 -101,-59 -190,-137 -262,-230 -72,91 -161,168 -261,227 -136,79 -293,124 -461,124 -254,0 -484,-103 -651,-270 -167,-167 -270,-397 -270,-651 0,-114 21,-223 59,-324 24,-62 54,-121 89,-176 -155,-59 -290,-158 -393,-285 -128,-158 -204,-359 -204,-577 0,-254 103,-484 270,-651 167,-167 397,-270 651,-270 66,0 131,7 193,21 19,4 38,9 57,14 12,-235 112,-448 269,-605 167,-167 397,-270 651,-270 254,0 484,103 651,270 157,157 258,370 269,605 18,-5 37,-10 56,-14 62,-13 127,-20 192,-20 254,0 484,103 651,270 167,167 270,397 270,651 0,217 -76,417 -203,575 -102,126 -236,226 -390,285zm-2323 -1620c-3,-27 -4,-54 -4,-82 0,-458 374,-832 832,-832 458,0 832,374 832,832 0,28 -1,55 -4,82 104,-47 219,-73 340,-73 458,0 832,374 832,832 0,397 -280,730 -653,812 131,147 211,341 211,553 0,458 -374,832 -832,832 -311,0 -582,-172 -725,-425 -144,251 -414,421 -723,421 -458,0 -832,-374 -832,-832 0,-210 79,-402 208,-549 -374,-81 -656,-415 -656,-813 0,-458 374,-832 832,-832 122,0 238,26 342,74z"/>
  <polygon class="fil1" points="6905,2884 7719,2884 7719,3696 8531,3696 8531,4510 7719,4510 7719,5322 6905,5322 6905,4510 6093,4510 6093,3696 6905,3696 "/>
  <path class="fil2" d="M11435 6071c-22,-3 -50,-9 -69,-22 -38,-15 -72,-61 -86,-98 -1,-1 -1,-1 -2,-2 -7,-24 -14,-47 -21,-70 -3,-12 -5,-24 -7,-36 -3,-27 -5,-53 -8,-79 0,-59 1,-118 1,-177 7,-44 8,-89 24,-132 11,-46 37,-90 74,-120 10,-7 20,-13 29,-19 6,-3 12,-6 19,-8 7,-3 14,-5 22,-7 22,-3 44,-7 67,-7 14,2 29,4 44,7 14,6 28,10 40,18 25,12 46,37 62,58 1,0 1,0 3,0 1,-1 1,-3 3,-4 0,-99 0,-197 1,-296 3,-3 7,-3 12,-5 57,0 114,0 171,0 4,0 7,3 9,6 -1,324 -1,649 -1,974 -4,4 -8,5 -14,5 -54,0 -108,0 -162,0 -2,-2 -4,-4 -6,-6 -1,-21 -1,-42 -1,-62 -2,-1 -4,-1 -6,-1 -32,41 -51,56 -101,78 -23,7 -82,10 -98,5zm82 -142c-5,-1 -10,-3 -15,-4 -21,-10 -35,-20 -45,-42 -5,-5 -3,-16 -8,-21 -3,-16 -6,-31 -8,-46 -2,-20 -4,-39 -5,-59 -1,-35 -1,-69 -1,-104 2,-33 4,-65 7,-97 4,-29 9,-61 27,-84 0,-12 36,-26 44,-29 14,0 27,0 41,0 7,2 13,4 20,7 5,3 9,7 14,10 14,14 22,27 26,46 7,7 4,22 9,31 2,18 5,35 7,54 3,80 5,161 -7,240 -3,11 -5,22 -8,34 -3,7 -7,14 -9,22 -3,10 -15,23 -23,29 -5,3 -10,5 -14,8 -16,3 -33,5 -50,5z"/>
  <path class="fil2" d="M12212 6075c-1,-1 -1,-3 -1,-4 -28,-5 -61,-8 -87,-20 -9,-5 -18,-9 -26,-13 -11,-8 -22,-17 -33,-25 -7,-7 -18,-18 -22,-26 -10,0 -34,-64 -38,-70 -5,-18 -10,-37 -14,-54 -5,-36 -9,-72 -13,-108 0,-1 0,-2 0,-3 0,-40 0,-81 1,-121 0,-13 -1,-27 4,-40 2,-37 7,-74 20,-110 5,-26 20,-49 32,-72 4,-7 8,-12 12,-18 1,-1 3,-2 4,-3 5,-10 24,-33 35,-35 0,-7 25,-17 30,-22 4,-3 8,-5 13,-7 14,-5 27,-10 42,-16 42,-8 84,-13 127,-13 20,2 39,4 59,7 22,5 43,12 64,20 9,5 19,10 29,16 0,2 17,12 20,14 0,1 0,1 1,3 34,29 57,70 69,112 1,1 1,2 3,3 6,31 15,61 17,93 5,25 6,54 7,80 -1,46 -1,93 -2,140 -7,18 -1,51 -11,66 -3,14 -6,28 -8,42 -3,8 -5,16 -8,25 -3,5 -5,10 -7,16 -12,24 -25,47 -42,68 -5,3 -21,16 -23,21 -15,10 -35,27 -53,30 -29,14 -65,19 -97,23 0,1 0,2 0,3 -31,0 -61,0 -91,0 0,-1 0,-3 0,-3 -1,0 -3,0 -4,0 0,1 0,2 0,3 -1,0 -3,0 -3,0zm39 -129c-8,-3 -16,-6 -23,-8 0,-1 0,-2 0,-3 -15,-6 -22,-18 -30,-30 -1,0 -1,0 -2,0 -5,-11 -9,-22 -13,-32 -7,-26 -9,-54 -10,-80 -10,-63 -3,-130 -3,-193 5,-39 4,-80 20,-117 4,-8 8,-16 13,-23 15,-18 27,-25 50,-31 12,0 39,-4 49,6 7,3 13,7 20,10 0,4 4,5 7,7 7,12 13,25 20,38 24,81 21,168 21,252 -1,31 -6,64 -8,95 -3,10 -5,20 -7,31 -5,11 -8,31 -17,40 -4,8 -12,16 -18,23 -9,5 -18,9 -27,14 -14,1 -29,1 -42,2z"/>
  <path class="fil2" d="M13676 6075c0,-1 0,-3 0,-3 -33,-4 -68,-8 -98,-23 -8,0 -25,-12 -31,-16 0,-1 0,-2 0,-3 -12,0 -39,-32 -46,-38 -18,-26 -37,-56 -44,-88 -11,-22 -14,-55 -18,-80 -1,-20 -1,-39 -2,-59 -8,-18 3,-46 -5,-66 1,-25 1,-51 3,-76 1,-18 3,-35 4,-52 2,-16 4,-32 7,-48 5,-19 10,-38 16,-57 5,-12 9,-23 14,-35 3,-2 10,-20 12,-24 10,-13 20,-25 30,-38 9,-8 19,-16 29,-23 0,-7 29,-17 36,-24 4,-1 8,-3 12,-3 1,-1 2,-2 3,-3 47,-16 95,-22 145,-22 22,3 56,-1 74,11 29,4 57,22 83,37 27,24 50,49 65,84 9,18 17,39 20,59 1,1 1,3 3,5 3,17 5,35 8,52 2,29 4,59 7,88 0,11 3,78 -1,83 -123,0 -246,1 -369,1 -5,2 -5,4 -7,8 0,23 -1,47 3,69 0,51 10,107 52,141 7,3 14,7 22,10 13,0 26,0 39,0 6,-3 12,-5 19,-7 22,-14 36,-35 45,-58 5,-22 12,-44 14,-67 1,-3 3,-5 4,-7 55,0 110,0 164,0 1,2 3,4 4,7 -1,16 -3,33 -3,50 -4,12 -3,28 -9,37 -9,42 -42,108 -84,129 0,5 -36,20 -43,25 -15,3 -33,8 -47,13 -13,1 -25,3 -38,5 0,1 0,2 0,3 -30,0 -60,0 -89,0zm-46 -474c-2,-1 -3,-3 -5,-3 -1,-9 -1,-18 -1,-27 5,-33 3,-69 23,-98 1,-3 2,-5 3,-8 1,-1 2,-1 3,-1 0,-9 18,-22 24,-27 5,-3 10,-5 15,-7 18,-3 41,-5 59,0 10,5 22,12 31,20 31,44 31,95 34,148 -1,0 -1,1 -1,1 -62,0 -124,1 -186,1z"/>
  <path class="fil2" d="M14372 6075c0,-1 0,-3 0,-3 -25,-3 -52,-7 -76,-12 -12,-4 -23,-8 -34,-12 -27,-14 -67,-39 -78,-69 -22,-29 -23,-72 -27,-106 -1,-18 -1,-35 -1,-53 1,-2 3,-4 5,-5 55,-1 110,-1 166,-1 1,18 2,37 3,55 5,14 11,42 25,49 0,11 41,25 50,27 14,0 29,0 44,0 13,-3 29,-8 40,-15 12,-10 20,-23 28,-37 2,-13 5,-27 5,-40 -2,-8 -3,-17 -5,-25 -2,-3 -4,-7 -5,-10 -4,-4 -7,-8 -10,-12 -10,-8 -21,-16 -31,-23 -21,-6 -41,-18 -63,-24 -5,-5 -13,-5 -20,-7 0,-3 -15,-6 -18,-6 -13,-6 -33,-10 -44,-18 -14,-3 -29,-10 -42,-15 -19,-13 -46,-22 -61,-40 -19,-15 -40,-39 -46,-63 -1,-2 -3,-4 -3,-6 -3,-10 -6,-20 -8,-29 -2,-13 -4,-26 -6,-39 0,-10 0,-20 0,-30 7,-17 3,-39 11,-57 6,-31 25,-61 48,-84 13,-10 26,-20 40,-30 18,-8 36,-18 55,-23 29,-10 61,-16 93,-16 35,-5 74,1 108,5 29,7 57,14 83,27 12,8 23,17 35,26 3,5 10,11 14,15 11,16 25,36 29,56 14,35 12,73 12,110 -56,1 -112,1 -167,2 -7,-7 -5,-17 -6,-27 -2,-10 -3,-19 -5,-28 -5,-10 -10,-21 -14,-31 -6,-5 -12,-10 -18,-14 -5,-3 -10,-5 -14,-7 -20,-3 -42,-2 -62,0 -14,7 -27,14 -40,23 -5,7 -9,13 -13,20 -2,8 -4,16 -5,24 1,8 1,16 2,24 1,5 2,9 3,14 3,5 5,9 8,14 12,15 28,24 44,33 29,10 61,25 91,31 27,9 54,19 81,29 13,7 31,12 42,23 5,3 11,7 17,10 3,3 7,5 10,8 0,1 0,1 0,3 1,0 1,0 2,0 8,10 16,20 25,29 13,0 27,62 31,70 3,26 5,53 3,80 -1,31 -9,63 -23,90 -15,22 -30,46 -52,61 0,8 -47,30 -58,34 -1,1 -1,1 -1,2 -18,5 -36,9 -54,14 -16,1 -31,3 -46,5 0,1 0,2 0,3 -29,0 -59,0 -88,0 0,-1 0,-3 0,-3 -3,0 -5,0 -7,0 0,1 0,2 0,3 -1,0 -3,0 -4,0z"/>
  <path class="fil2" d="M15351 6075c-1,-1 -1,-3 -1,-4 -36,-5 -81,-22 -101,-55 -1,0 -1,0 -2,0 -10,-13 -19,-28 -24,-44 -12,-14 -16,-52 -19,-68 0,-29 0,-57 0,-86 3,-15 4,-37 12,-50 6,-30 29,-64 54,-81 1,-1 1,-3 3,-4 25,-16 47,-29 75,-37 14,-5 28,-11 42,-13 4,-2 8,-3 12,-5 31,-6 62,-18 93,-23 7,-3 14,-5 21,-7 5,-3 10,-5 16,-7 7,-5 15,-10 23,-16 2,-3 4,-7 7,-10 3,-9 7,-16 8,-26 0,-13 5,-53 -5,-63 -1,-4 -3,-8 -3,-11 -1,-1 -2,-1 -3,-1 0,-5 -9,-14 -12,-18 -4,-3 -8,-5 -12,-8 -6,-3 -12,-5 -17,-7 -27,-5 -75,-8 -94,18 -14,8 -19,30 -24,44 -1,16 -1,33 -2,50 -57,0 -114,1 -170,1 -1,-1 -2,-1 -3,-1 0,-16 0,-33 1,-48 7,-54 21,-86 53,-129 8,-7 16,-14 24,-21 15,-10 29,-20 46,-25 10,-5 23,-9 34,-12 9,-3 18,-5 28,-7 17,-1 35,-3 52,-4 23,-7 54,0 78,0 12,1 25,3 39,4 10,2 21,4 31,7 10,3 22,5 30,11 30,7 67,34 82,62 18,18 20,52 28,74 1,10 2,20 3,29 3,162 3,326 4,488 2,20 4,46 14,64 1,5 7,16 1,20 -58,0 -116,1 -174,1 -2,-1 -4,-3 -6,-3 -3,-6 -7,-12 -9,-18 -3,-8 -5,-16 -7,-23 -2,-9 -4,-18 -5,-27 -3,1 -5,1 -7,3 -18,27 -40,55 -71,66 -22,10 -50,14 -74,17 0,1 0,1 0,3 -24,0 -48,0 -72,0zm89 -129c-8,-5 -21,-8 -27,-18 -25,-25 -25,-66 -25,-99 4,-39 20,-67 54,-87 7,-3 13,-5 20,-7 35,-14 74,-18 105,-40 1,1 3,1 5,2 0,53 0,106 0,160 -3,20 -12,35 -23,51 -9,8 -18,16 -27,23 -12,4 -24,8 -36,13 -15,1 -30,1 -45,2z"/>
  <path class="fil2" d="M10185 6058c-5,-1 -9,-3 -13,-3 0,-327 0,-653 0,-980 2,-1 4,-1 7,-2 60,0 121,0 181,0 3,1 7,1 10,2 0,325 1,651 1,976 -2,1 -3,3 -5,5 -61,0 -121,1 -181,1z"/>
  <path class="fil2" d="M10538 6058c-5,-1 -10,-2 -13,-5 -1,-243 -1,-486 -1,-729 1,-3 1,-5 2,-7 59,-1 119,-1 178,-1 1,1 1,3 3,5 0,24 0,48 1,73 1,1 1,3 3,5 1,-5 4,-6 7,-9 8,-11 17,-22 25,-33 3,-3 7,-5 10,-8 0,-12 54,-35 63,-39 30,-8 61,-14 93,-14 16,2 33,4 50,7 7,2 15,4 23,7 6,3 12,5 19,8 13,11 30,20 42,33 3,4 7,8 10,12 6,10 12,22 18,33 3,7 5,14 8,22 3,20 7,39 8,59 0,193 0,386 0,579 -1,1 -3,3 -4,5 -61,-1 -123,-1 -183,-1 -1,-1 -3,-3 -3,-4 -1,-179 -1,-357 -1,-535 -3,-12 -5,-23 -8,-34 -3,-5 -5,-9 -8,-14 -1,0 -2,0 -3,0 -14,-19 -25,-20 -48,-26 -20,0 -37,1 -57,7 -5,3 -9,5 -14,8 -7,5 -12,10 -18,16 -5,8 -10,16 -14,25 -2,5 -4,10 -5,15 -2,12 -3,24 -5,36 -1,166 -1,332 -1,498 0,8 -10,8 -16,9 -55,0 -109,0 -163,1z"/>
  <path class="fil2" d="M12726 6058c-5,-1 -8,-3 -10,-7 0,-243 0,-485 0,-727 0,-4 2,-7 4,-8 57,0 116,0 174,0 1,0 3,1 4,1 8,23 -9,56 5,78 2,0 12,-17 14,-20 2,0 11,-12 12,-14 4,-3 16,-14 18,-18 17,-10 34,-25 54,-31 30,-15 68,-18 101,-18 16,2 31,4 48,7 10,3 22,5 30,11 8,2 31,12 34,20 25,12 43,50 52,75 6,22 11,46 13,69 -1,193 -1,386 -1,579 -3,1 -5,1 -7,3 -59,0 -119,0 -178,0 -2,-1 -3,-3 -5,-3 -1,-177 -2,-354 -3,-530 -1,-10 -3,-20 -4,-29 -3,-6 -5,-12 -7,-18 -8,-12 -18,-20 -29,-27 -6,-2 -12,-4 -17,-6 -15,0 -30,0 -45,0 -8,2 -16,5 -23,7 -3,1 -7,3 -10,5 -14,12 -22,18 -30,34 -1,4 -3,10 -6,13 -3,16 -7,33 -9,50 -1,167 -1,334 -1,501 -1,1 -2,1 -3,3 -59,0 -119,0 -178,1z"/>
  <path class="fil2" d="M14862 6058c-1,-1 -2,-3 -3,-3 -1,-244 -1,-488 -1,-732 1,-3 1,-5 3,-7 61,0 123,0 185,1 1,1 1,2 2,3 0,245 0,489 0,734 -1,1 -1,1 -2,3 -62,1 -123,1 -185,2z"/>
  <path class="fil2" d="M14860 5239c-1,-3 -1,-5 -2,-8 0,-51 0,-101 0,-151 2,-5 2,-5 7,-7 59,0 117,0 176,0 2,1 4,1 6,2 0,53 1,106 1,159 -1,1 -1,2 -1,3 -63,0 -125,1 -187,1z"/>
  <path class="fil2" d="M11447 4600c-26,0 -52,-5 -78,-6 -9,-3 -33,-6 -38,-11 -3,-1 -7,-1 -10,-2 -29,-12 -69,-33 -86,-60 -11,-5 -16,-22 -25,-31 -12,-26 -24,-52 -30,-80 -7,-15 -8,-35 -11,-51 -2,-25 -4,-50 -5,-74 -1,-33 -1,-67 -1,-99 3,-40 5,-80 8,-119 3,-12 3,-30 9,-40 2,-10 6,-35 13,-42 3,-10 7,-19 10,-28 9,-15 18,-36 32,-47 1,-2 1,-4 2,-5 5,-3 11,-9 14,-14 12,-9 23,-18 35,-27 8,-5 17,-10 26,-14 8,-3 17,-7 26,-10 14,-4 27,-7 41,-10 14,-2 28,-4 42,-6 23,0 46,0 69,0 15,2 30,4 45,7 17,5 38,8 53,19 8,0 30,16 36,20 8,7 17,14 25,21 6,7 12,14 18,22 9,16 18,33 27,50 3,6 5,12 8,19 2,7 4,14 7,22 2,9 4,18 7,27 2,14 4,27 7,41 2,29 4,57 7,87 -1,28 -1,56 -1,84 -125,1 -251,2 -376,3 0,24 0,47 0,70 2,21 4,42 7,63 2,8 4,16 7,23 9,26 23,48 46,64 5,2 11,4 17,7 12,0 25,0 39,0 10,-5 20,-9 30,-13 4,-5 8,-8 12,-12 9,0 25,-52 27,-59 5,-15 7,-30 9,-46 1,-3 3,-5 5,-7 55,0 110,0 166,1 1,1 1,3 2,4 0,34 -7,69 -16,101 -6,14 -12,28 -17,42 -8,16 -19,32 -31,46 -7,2 -25,23 -31,29 -9,5 -18,10 -27,16 -5,1 -12,3 -15,7 -9,3 -18,5 -26,8 -10,2 -20,4 -29,7 -13,1 -26,3 -39,5 -13,0 -26,1 -39,1zm-87 -472c-3,-1 -5,-3 -7,-3 1,-59 2,-123 55,-161 18,-8 32,-10 53,-10 20,3 30,8 46,19 4,5 8,9 13,14 2,4 4,8 7,12 2,5 4,11 7,17 2,8 4,18 7,27 2,27 5,54 7,81 -1,1 -1,1 -1,3 -62,1 -124,1 -185,2z"/>
  <path class="fil2" d="M12511 4599c-11,-2 -22,-4 -33,-5 -19,-5 -58,-21 -67,-39 -19,-14 -28,-38 -39,-57 -2,-5 -4,-10 -5,-14 -3,-10 -5,-19 -8,-28 -3,-16 -5,-31 -7,-47 0,-33 -1,-73 11,-103 5,-33 29,-77 57,-91 0,-1 0,-3 0,-3 19,-9 38,-27 59,-31 27,-13 59,-22 88,-28 8,-4 22,-4 29,-9 22,-6 44,-12 67,-17 5,-3 10,-5 16,-7 10,-7 21,-14 30,-23 2,-4 4,-8 7,-12 2,-9 4,-18 7,-26 0,-10 0,-20 0,-29 -3,-9 -5,-18 -7,-27 -12,-20 -22,-36 -46,-43 -25,-2 -67,-10 -87,11 -22,7 -29,46 -34,65 -1,12 -1,23 -2,36 -57,0 -113,0 -169,0 -1,-14 -1,-29 -1,-42 2,-33 9,-65 24,-93 3,-5 5,-8 8,-12 22,-47 74,-70 119,-85 9,-3 19,-5 29,-7 16,-3 33,-5 49,-7 55,0 110,-1 164,14 12,4 24,8 36,13 20,9 35,22 52,35 7,10 14,20 22,30 3,9 8,23 13,31 2,8 4,17 7,26 2,13 4,27 7,40 1,160 1,320 2,480 2,29 8,57 20,83 -1,3 -1,5 -1,8 -58,0 -116,0 -174,1 -10,-3 -14,-21 -19,-31 -2,-14 -6,-29 -11,-42 -1,-1 -1,-1 -2,-1 -9,18 -27,41 -44,53 0,6 -33,18 -37,22 -11,3 -22,5 -33,8 -10,1 -26,-1 -34,5 -21,0 -42,0 -62,1zm89 -127c-16,0 -30,-11 -41,-21 -4,-5 -7,-10 -10,-16 -3,-6 -5,-12 -7,-18 -3,-12 -5,-25 -7,-37 0,-27 3,-51 16,-76 1,-3 3,-6 5,-8 7,-7 13,-13 20,-20 27,-16 54,-25 84,-31 7,-3 13,-5 20,-7 10,-5 26,-11 34,-19 3,-1 5,-1 8,-1 0,51 1,102 1,154 -3,9 -5,18 -7,28 -8,14 -17,28 -29,40 -11,7 -22,14 -33,21 -18,5 -35,8 -54,8z"/>
  <path class="fil2" d="M10178 4585c-2,-1 -4,-1 -5,-2 -1,-327 -1,-654 -1,-980 2,-2 4,-3 6,-5 96,0 193,0 289,1 2,7 4,14 7,21 3,20 7,39 10,59 1,2 1,4 3,7 5,35 12,72 22,106 1,12 4,26 8,38 1,10 3,22 7,31 2,20 8,39 10,59 3,11 3,29 9,39 3,20 7,40 10,61 7,13 6,33 11,48 3,22 8,44 13,65 7,52 22,103 31,154 0,1 1,1 1,2 6,-16 10,-31 12,-48 3,-12 6,-25 9,-37 3,-20 7,-39 10,-59 5,-15 5,-33 11,-48 6,-48 22,-95 28,-143 3,-16 7,-33 11,-49 10,-53 24,-108 31,-160 1,-3 1,-5 3,-7 3,-24 8,-49 15,-72 3,-22 4,-48 17,-65 96,0 192,0 288,1 1,3 2,5 3,8 -1,324 -1,649 -1,973 -1,1 -2,3 -3,4 -60,-1 -120,-1 -179,-1 -1,-255 -3,-509 -3,-763 -1,-2 -1,-4 -2,-5 -14,41 -17,87 -30,129 -8,47 -23,94 -30,142 -8,16 -10,42 -13,60 -8,16 -11,39 -13,57 -10,33 -15,69 -24,102 -13,59 -26,117 -39,176 -4,14 -7,29 -10,43 -2,14 -7,48 -16,59 -50,0 -99,0 -148,0 -2,-1 -3,-1 -5,-1 -5,-14 -8,-29 -10,-43 -12,-42 -23,-88 -29,-131 -5,-10 -5,-23 -9,-34 -6,-28 -12,-55 -17,-83 -5,-10 -3,-25 -9,-35 -1,-8 -2,-24 -7,-31 -13,-71 -33,-142 -46,-213 -9,-19 -7,-45 -16,-63 -6,-38 -18,-76 -23,-114 -2,-3 -3,-7 -5,-10 -2,-7 -3,-12 -5,-18 -1,3 -1,5 -2,8 -1,255 -1,510 -2,766 -58,1 -116,1 -174,2z"/>
  <path class="fil2" d="M11850 4585c-1,-2 -3,-3 -3,-5 0,-245 0,-491 0,-736 1,-1 1,-1 2,-2 59,0 118,0 178,0 1,0 1,1 3,1 0,27 0,54 1,81 1,3 3,5 5,8 16,-26 33,-48 55,-69 8,-7 17,-12 26,-18 4,-3 8,-5 13,-8 5,-3 11,-5 17,-7 26,-5 64,-15 89,-3 0,58 0,117 1,176 -1,1 -3,3 -3,5 -24,-1 -48,-1 -72,-1 -12,2 -24,5 -35,7 -17,8 -37,15 -50,30 -5,5 -10,10 -15,15 -5,8 -10,17 -14,25 -3,7 -5,15 -7,23 -1,157 -1,315 -2,472 -1,1 -1,3 -2,5 -62,0 -124,1 -185,1z"/>
  <path class="fil2" d="M13052 4585c-3,-3 -5,-5 -8,-7 0,-324 0,-648 0,-972 1,-5 1,-7 6,-8 60,0 121,0 181,0 2,3 4,5 6,8 -1,99 -1,198 -1,298 3,3 3,3 8,3 21,-38 61,-67 102,-76 7,-7 30,-7 40,-9 19,-1 38,-1 57,-1 13,2 26,4 40,7 25,8 48,18 68,35 0,1 0,1 0,2 2,1 4,3 7,5 0,1 0,1 0,2 14,9 25,31 31,46 5,5 5,15 8,22 2,10 4,20 7,31 1,11 2,22 3,33 -1,193 -1,385 -1,578 -1,1 -1,1 -2,3 -63,-1 -125,-1 -187,-1 -1,-182 -3,-364 -3,-546 -4,-12 -7,-26 -13,-38 -23,-29 -56,-31 -91,-27 -16,7 -35,11 -46,26 -6,0 -16,24 -19,31 -4,18 -8,37 -10,55 0,163 0,325 1,488 -1,4 -3,8 -4,12 -61,1 -121,1 -181,2z"/>
  <path class="fil2" d="M13630 3250c-10,-5 -25,0 -36,-4 -40,-3 -80,-14 -116,-32 -5,-3 -8,-5 -12,-7 0,-1 0,-1 0,-2 -32,-17 -51,-46 -67,-78 -3,-12 -7,-23 -9,-35 -1,-14 -3,-29 -3,-42 59,-1 119,-1 179,-1 5,3 7,22 9,28 2,4 5,8 7,13 3,3 5,5 8,8 7,5 14,10 22,15 4,2 8,4 12,7 25,5 54,6 78,-1 17,-7 36,-19 42,-37 5,-5 10,-22 13,-29 11,-46 7,-97 7,-145 -2,-1 -4,-1 -5,-2 -5,11 -18,21 -26,31 -8,6 -16,12 -23,18 -4,3 -8,5 -11,8 -10,5 -20,10 -29,15 -7,2 -12,4 -18,7 -12,2 -24,4 -36,7 -8,0 -17,0 -25,0 -14,-3 -29,-5 -43,-7 -9,-3 -18,-6 -27,-8 -23,-18 -54,-25 -70,-52 -1,0 -2,0 -3,0 0,-5 -19,-28 -20,-29 -7,-16 -14,-31 -21,-47 -12,-39 -20,-79 -23,-119 -2,-11 -3,-22 -5,-32 -1,-44 -1,-87 -1,-131 1,-33 7,-65 8,-97 5,-22 7,-53 18,-72 1,-6 3,-14 7,-18 5,-13 11,-26 17,-39 9,-14 19,-27 29,-40 6,0 16,-21 24,-21 8,-16 40,-25 55,-31 11,-3 22,-5 33,-8 26,0 54,-1 80,1 14,5 31,8 42,16 19,8 39,24 50,41 10,5 14,25 23,34 1,-1 2,-3 3,-4 0,-21 0,-42 1,-62 2,-8 3,-7 8,-10 54,0 107,0 161,0 3,0 7,1 10,1 1,1 1,3 3,4 -1,249 -1,497 -1,746 -3,16 -5,31 -7,47 -6,17 -11,35 -16,52 -7,13 -14,26 -21,39 -7,7 -12,14 -18,22 -9,6 -21,19 -28,27 -24,14 -54,33 -82,37 -10,3 -19,6 -29,7 -17,8 -42,3 -59,9 -19,1 -38,1 -57,3zm18 -407c-13,-4 -27,-8 -37,-19 -12,-6 -23,-33 -29,-44 -3,-10 -5,-20 -8,-30 -3,-18 -5,-35 -7,-52 0,-44 0,-88 0,-132 2,-14 -1,-33 5,-46 2,-38 8,-77 29,-110 5,-5 9,-9 14,-13 5,-3 11,-6 17,-8 24,-4 41,-7 65,0 7,5 15,9 23,14 5,7 10,13 16,20 2,5 4,9 7,14 2,7 4,13 7,20 2,9 4,18 7,27 3,27 7,55 8,82 0,37 0,73 0,110 -3,23 -6,47 -8,71 -2,3 -3,7 -5,10 -1,10 -6,20 -8,29 -8,11 -16,22 -24,33 -7,5 -12,9 -18,14 -8,2 -16,4 -23,7 -10,0 -20,1 -30,1z"/>
  <path class="fil2" d="M11087 3014c-67,0 -126,-49 -145,-112 -10,-21 -12,-48 -16,-71 -1,-18 -1,-35 -1,-52 3,-25 5,-58 17,-80 15,-45 57,-86 102,-101 10,-5 22,-11 34,-13 39,-16 84,-25 125,-35 2,-1 5,-3 7,-3 18,-4 36,-10 52,-18 11,-8 22,-18 27,-31 2,-8 4,-16 7,-23 0,-10 0,-20 0,-29 -3,-10 -5,-20 -7,-29 -4,-7 -8,-13 -12,-20 -14,-14 -23,-20 -43,-26 -14,-1 -29,-1 -42,-1 -21,6 -45,11 -54,33 -1,0 -1,0 -2,0 -3,5 -6,11 -8,17 -3,9 -5,17 -7,25 -1,13 -2,26 -3,39 -55,0 -110,0 -165,0 -10,-5 -3,-59 -2,-72 2,-9 4,-18 7,-27 5,-13 10,-25 16,-38 8,-13 18,-26 27,-39 4,-5 8,-9 13,-13 12,-8 23,-20 38,-24 12,-12 46,-20 63,-24 11,-3 22,-5 33,-7 68,-4 140,-7 206,14 10,4 27,8 35,16 11,3 20,13 29,17 0,1 0,1 0,2 8,6 17,16 22,24 12,12 20,34 26,50 0,8 3,15 5,22 2,14 4,29 7,43 1,160 1,320 2,480 0,28 11,59 21,85 -1,1 -2,3 -3,5 -59,0 -119,0 -178,1 -9,-9 -10,-24 -16,-35 -1,-6 -5,-37 -11,-40 -6,6 -7,17 -14,20 -15,27 -46,48 -75,57 -16,3 -32,7 -48,10 -24,0 -47,1 -70,1zm88 -126c-14,-3 -26,-7 -38,-16 -31,-37 -33,-87 -22,-132 5,-10 9,-19 14,-28 5,-5 10,-10 16,-16 10,-6 18,-14 31,-17 15,-7 32,-12 49,-15 1,-1 3,-2 5,-3 11,-2 41,-10 48,-20 4,-3 8,-5 12,-7 2,-1 4,-1 6,-1 0,50 0,101 1,152 -3,14 -6,31 -13,44 -7,8 -14,17 -20,25 -9,7 -18,13 -27,20 -6,2 -12,4 -18,7 -14,1 -29,3 -42,5z"/>
  <path class="fil2" d="M12127 3014c-22,0 -49,-8 -69,-16 -6,-4 -12,-8 -18,-11 -8,-7 -20,-13 -24,-22 -17,-20 -29,-44 -39,-68 -3,-8 -5,-16 -7,-24 -3,-14 -5,-29 -7,-42 0,-56 1,-118 34,-166 0,-3 2,-4 4,-5 10,-20 35,-41 56,-49 0,-1 0,-1 0,-2 14,-5 27,-13 42,-17 1,-1 3,-3 5,-3 54,-16 109,-35 164,-46 10,-5 21,-9 31,-13 6,-5 12,-10 18,-14 4,-7 8,-14 12,-21 1,-6 3,-12 5,-18 0,-10 0,-19 1,-28 -3,-12 -5,-23 -7,-34 -3,-5 -5,-10 -7,-14 -1,0 -1,0 -2,0 -10,-17 -27,-24 -45,-30 -17,0 -33,0 -50,0 -19,5 -29,12 -43,25 -5,7 -8,13 -12,20 -3,7 -5,14 -7,22 -1,8 -1,42 -6,47 -55,-1 -110,-1 -165,-1 -1,-1 -1,-1 -2,-2 0,-23 -1,-48 3,-72 5,-22 14,-41 20,-61 2,-5 5,-9 7,-13 1,0 1,0 3,0 0,-5 3,-9 7,-11 6,-8 12,-16 18,-23 22,-17 46,-37 74,-43 10,-5 23,-6 33,-11 15,-3 30,-5 45,-8 43,0 87,-1 131,1 16,3 35,4 50,11 32,5 61,24 86,43 0,3 6,6 7,9 16,16 25,37 33,57 2,7 4,15 6,23 2,14 4,29 7,44 1,152 1,304 2,457 1,15 1,30 2,46 2,9 4,18 7,28 4,10 8,22 12,33 0,2 0,4 0,7 -60,1 -120,1 -180,2 -12,-12 -16,-35 -19,-52 -3,-7 -5,-14 -7,-22 -1,-1 -1,-1 -2,-1 -7,12 -16,25 -25,35 -5,2 -17,14 -18,18 -11,7 -22,13 -33,20 -20,6 -41,11 -62,14 -24,0 -46,1 -69,1zm87 -126c-6,-1 -12,-3 -18,-4 -18,-8 -34,-22 -38,-42 -11,-22 -10,-49 -10,-74 1,-9 3,-18 5,-27 2,-5 4,-10 7,-15 10,-16 18,-26 33,-37 15,-7 31,-13 46,-20 16,-5 31,-8 47,-12 10,-7 37,-22 48,-22 0,50 1,100 1,150 -3,10 -5,20 -7,30 -5,8 -9,17 -13,26 -4,3 -7,4 -7,9 -1,0 -2,0 -3,0 -10,15 -33,26 -50,33 -15,1 -29,3 -44,5z"/>
  <path class="fil2" d="M10176 3000c-2,-1 -3,-2 -5,-3 -1,-328 -1,-655 -1,-982 135,0 270,0 406,0 0,1 0,2 0,3 10,3 27,1 35,8 25,6 46,20 69,31 0,2 38,32 39,33 1,4 2,5 5,7 9,14 18,27 28,42 6,13 13,26 17,40 1,2 2,4 3,7 5,22 12,44 14,67 1,20 7,59 2,78 -1,18 -3,35 -4,54 -5,17 -10,34 -14,51 -3,8 -9,26 -15,32 -9,21 -24,38 -37,56 -10,8 -21,16 -31,25 0,1 0,1 0,3 -8,5 -17,10 -25,16 -26,13 -54,25 -82,30 -3,1 -5,1 -7,3 -14,2 -27,4 -40,7 -54,1 -107,3 -161,4 -1,1 -1,3 -1,5 -1,128 -2,256 -3,384 -1,1 -3,1 -3,2 -64,0 -127,0 -191,1zm200 -540c-2,-2 -3,-4 -5,-5 0,-96 0,-192 0,-288 1,-1 3,-3 4,-4 40,0 82,-2 121,2 7,2 15,4 23,7 4,2 8,4 13,7 7,5 14,10 21,16 5,7 10,13 15,20 3,7 5,14 8,22 14,27 12,65 12,95 -3,12 -5,25 -7,39 -3,7 -5,14 -8,22 -7,9 -13,19 -20,29 -11,10 -25,20 -38,27 -10,3 -20,5 -29,8 -38,1 -76,3 -113,5z"/>
  <path class="fil2" d="M11645 3000c-2,-1 -4,-3 -6,-3 -1,-328 -1,-655 -1,-982 64,0 128,0 193,0 -1,327 -1,654 -1,982 -2,1 -3,1 -5,2 -61,0 -121,1 -181,1z"/>
  <path class="fil2" d="M12679 3000c-1,-1 -1,-2 -2,-3 0,-245 0,-491 0,-736 1,-2 1,-3 2,-5 58,-1 116,-1 174,-1 1,0 3,1 5,1 1,1 1,3 2,5 0,10 -3,74 4,78 5,-9 11,-18 17,-26 18,-21 44,-48 72,-55 15,-10 35,-11 52,-18 40,-3 85,-5 123,7 10,5 25,8 34,16 14,5 26,22 38,31 7,10 13,20 20,30 2,5 4,10 7,16 2,7 4,14 7,21 3,14 5,28 8,42 0,198 0,396 0,594 -1,0 -1,1 -1,1 -62,0 -124,0 -185,0 -1,-1 -2,-1 -3,-1 -1,-176 -1,-350 -1,-525 -2,-12 -4,-24 -5,-35 -4,-12 -9,-24 -17,-34 -30,-22 -62,-20 -97,-13 -6,3 -12,7 -18,10 -19,9 -29,33 -37,52 -3,15 -5,30 -7,46 -1,166 -1,333 -1,499 -1,1 -2,1 -3,2 -62,0 -124,1 -186,1z"/>
 </g>
</svg>
